<svg height='100px' width='100px'  fill="#ffffff" xmlns="http://www.w3.org/2000/svg" xmlns:xlink="http://www.w3.org/1999/xlink" version="1.1" x="0px" y="0px" viewBox="0 0 100 100" style="enable-background:new 0 0 100 100;" xml:space="preserve"><path d="M77.5,23h-55c-3.3,0-6,2.7-6,6v54c0,6.6,5.4,12,12,12h43c6.6,0,12-5.4,12-12V29C83.5,25.7,80.8,23,77.5,23z M36,79  c0,1.1-0.9,2-2,2c-1.1,0-2-0.9-2-2V36c0-1.1,0.9-2,2-2c1.1,0,2,0.9,2,2V79z M52,79c0,1.1-0.9,2-2,2c-1.1,0-2-0.9-2-2V36  c0-1.1,0.9-2,2-2c1.1,0,2,0.9,2,2V79z M68,79c0,1.1-0.9,2-2,2c-1.1,0-2-0.9-2-2V36c0-1.1,0.9-2,2-2c1.1,0,2,0.9,2,2V79z M87.5,16  c0,1.7-1.3,3-3,3h-69c-1.7,0-3-1.3-3-3s1.3-3,3-3H37v-2c0-3.3,2.7-6,6-6h14c3.3,0,6,2.7,6,6v2h21.5C86.2,13,87.5,14.3,87.5,16z"></path></svg>